<?xml version="1.0" encoding="UTF-8" standalone="no"?>
<svg
   version="1.1"
   viewBox="0 0 1810 636"
   id="svg17"
   sodipodi:docname="logo1.svg"
   inkscape:version="1.3.2 (091e20e, 2023-11-25)"
   width="1810"
   height="636"
   xmlns:inkscape="http://www.inkscape.org/namespaces/inkscape"
   xmlns:sodipodi="http://sodipodi.sourceforge.net/DTD/sodipodi-0.dtd"
   xmlns="http://www.w3.org/2000/svg"
   xmlns:svg="http://www.w3.org/2000/svg">
  <defs
     id="defs17">
    <rect
       x="1102.2802"
       y="-43.687935"
       width="383.10956"
       height="265.48822"
       id="rect19" />
    <rect
       x="1035.068"
       y="117.62136"
       width="184.83356"
       height="245.32455"
       id="rect18" />
  </defs>
  <sodipodi:namedview
     id="namedview17"
     pagecolor="#ffffff"
     bordercolor="#000000"
     borderopacity="0.25"
     inkscape:showpageshadow="2"
     inkscape:pageopacity="0.0"
     inkscape:pagecheckerboard="0"
     inkscape:deskcolor="#d1d1d1"
     inkscape:zoom="0.297565"
     inkscape:cx="1209.8197"
     inkscape:cy="315.89737"
     inkscape:window-width="1312"
     inkscape:window-height="449"
     inkscape:window-x="0"
     inkscape:window-y="38"
     inkscape:window-maximized="0"
     inkscape:current-layer="svg17" />
  <path
     fill="#ffffff"
     d="m 237.81,112.62 q 10.97,-2.29 22.14,-3.94 c 66.67,-9.86 131.07,5.17 186.97,42.3 q 4.63,3.08 0.95,7.37 -13.84,16.2 -26.02,31.73 c -1.72,2.2 -4.2,2.79 -6.5,1.24 q -45.14,-30.35 -97.21,-34.19 c -44.22,-3.26 -89.1,5.52 -127.01,28.41 q -32.93,19.88 -57.83,50.53 -18.19,22.4 -29.62,51.27 c -1.46,3.68 -4.64,3.49 -8.26,2.72 q -21.53,-4.58 -40.7,-7.18 c -2.82,-0.39 -2.84,-2.1 -2.04,-4.4 q 5.47,-15.71 11.47,-27.55 42.55,-83.96 127.49,-122.54 4.55,-2.06 -0.43,-2.51 Q 170.09,124 155.6,111.27 c -27.69,-24.31 -29.62,-66.88 -3.31,-92.73 20.1,-19.74 50.27,-23.58 74.68,-9.09 17.52,10.39 29.01,28.53 30.51,49.01 q 1.93,26.37 -15.15,47.63 -2.35,2.93 -4.9,5.89 -0.76,0.88 0.38,0.64 z"
     id="path10"
     style="fill:#ececec" />
  <path
     fill="#ffffff"
     d="m 645.73,509.24 a 0.45,0.45 0 0 1 0.69,-0.14 c 30.65,26.01 64.7,44.36 104.21,52.01 q 37.8,7.32 78.7,4.72 c 21.83,-1.39 44.54,-6.38 62.96,-16.55 15.72,-8.67 28.88,-21.57 35.59,-38.04 q 8.52,-20.92 5.33,-44.09 c -1.93,-14.1 -9.69,-25.77 -21.13,-34.9 q -14.38,-11.46 -31.54,-17.7 -25.55,-9.28 -54.61,-16.11 c -30.7,-7.21 -60.56,-14.46 -90.46,-24.49 q -13.52,-4.53 -26.07,-9.97 c -27.34,-11.84 -54.49,-32.87 -66.87,-60.23 -8.26,-18.26 -10.85,-39.22 -9.77,-59.59 q 2.32,-43.77 29.4,-76.64 c 28.44,-34.54 73.8,-51.84 117.34,-56.71 69.76,-7.8 146.37,7.69 199.63,55.17 q 2.86,2.55 5.47,5.28 0.4,0.41 0.14,0.93 l -21.32,43.3 a 0.65,0.65 0 0 1 -1.01,0.2 Q 942.67,198.32 919.29,185.1 876.4,160.84 824.47,158.68 c -35.32,-1.47 -74.5,2.96 -102.89,25.12 q -33.65,26.25 -30.85,72.78 1.82,30.3 25.48,47.7 6.79,4.99 16.98,10.11 c 23.27,11.7 50.11,18.98 76.28,25.18 32.61,7.72 65.99,16.55 97.9,27.85 q 31.79,11.24 55.38,33.66 23.26,22.11 27.82,54.85 c 6.47,46.36 -8.31,89.8 -44.83,119.71 -30.52,24.99 -71.58,36.27 -110.25,39.3 q -27.59,2.17 -57.52,-0.16 C 720.31,610.28 666.59,591.94 623.9,553.85 q -0.58,-0.52 -0.23,-1.21 z"
     id="path11"
     style="fill:#ececec" />
  <path
     fill="#ffffff"
     d="m 1267.42,110.34 c 71.68,-6.86 145.81,9.86 198,60.86 q 0.39,0.39 0.15,0.88 l -21.51,43.7 a 0.34,0.35 32.4 0 1 -0.53,0.12 c -17.92,-15.24 -37.26,-28.47 -58.18,-38.34 q -33.57,-15.83 -74.1,-18.11 -36.17,-2.05 -67.59,6.55 -38.19,10.45 -65.85,39.19 c -31.23,32.45 -45.1,77.36 -49.23,121.5 q -2.96,31.58 -0.61,63.91 c 3.32,45.93 16.24,92.83 48.25,127.39 q 25.03,27.02 60.09,38.65 c 29.45,9.77 62.38,11.17 93.34,7.02 q 41.51,-5.56 78.47,-28.73 18.46,-11.57 35.26,-25.79 a 0.5,0.51 57 0 1 0.78,0.16 l 21.35,43.4 q 0.32,0.65 -0.2,1.15 c -41.15,39.9 -95.37,58.91 -152.62,61.74 -56.46,2.78 -111.36,-8.85 -156.49,-42.34 q -32.35,-24.01 -53.66,-60.94 c -27.75,-48.06 -36.57,-103.89 -35.5,-158.79 1.41,-72.24 22.52,-145.6 78.89,-193.72 34.17,-29.16 76.73,-45.17 121.49,-49.46 z"
     id="path12"
     style="fill:#ececec" />
  <path
     fill="#ffffff"
     d="m 545.87,437.81 q -0.37,-1.62 -0.86,-0.03 C 532.68,477.62 509,513.37 478.75,542.16 q -41.38,39.39 -93.73,57.92 -2.96,1.05 -3.81,-1.94 -6.17,-21.82 -12.41,-43.42 -1.22,-4.21 2.94,-5.8 44.45,-17.04 77.68,-51.55 c 29.59,-30.72 49.63,-72.15 54.55,-115.06 6.83,-59.53 -12.81,-120.67 -55.94,-162.93 q -3.3,-3.23 -0.41,-6.68 13.85,-16.51 28.52,-35.35 1.94,-2.48 4.11,-0.37 c 10.76,10.42 20.71,21.52 29.55,33.73 q 49.97,69 47.92,156.51 -0.2,8.89 -1.3,17.24 -0.61,4.68 2.51,1.14 c 13.07,-14.78 31.85,-23.92 51.74,-22.75 18.16,1.06 35.4,9.8 46.31,24.34 q 14.82,19.75 12.86,45.75 c -2.25,29.76 -28,54.57 -57.9,56.36 -32.81,1.97 -58.81,-20.04 -66.07,-51.49 z"
     id="path15"
     style="fill:#ececec" />
  <path
     fill="#ffffff"
     d="M 87.42,511.19 Q 80.26,500.61 74.58,491.32 C 42.92,439.46 31.91,379.23 41.55,318.98 c 0.37,-2.36 2.48,-2.98 4.53,-2.58 q 21.41,4.11 42.59,7.39 4.86,0.75 4.01,5.85 c -12.08,72.65 18.6,146.46 76.82,190.89 36.12,27.57 81.73,41.97 126.59,42.53 12.26,0.16 23.95,-1.11 35.68,-3.32 2.07,-0.38 3.68,0.63 4.21,2.58 q 6.59,24.18 12.49,44.15 0.91,3.08 -2.08,3.66 c -13.32,2.58 -26.29,4.21 -38.38,4.73 q -12.42,0.54 -29.73,-0.61 c -55.7,-3.7 -108.75,-25.39 -151.18,-61.37 q -1.28,-1.09 -2.72,-1.9 a 0.5,0.5 0 0 0 -0.74,0.55 q 3.11,13.87 2.19,26.51 c -2,27.36 -25.57,51.61 -52.5,55.21 -2.24,0.3 -4.25,1.94 -6.33,1.98 q -3.46,0.06 -7.2,-0.02 a 1.95,1.98 65.6 0 1 -1.17,-0.43 c -2.52,-2.04 -5.99,-1.37 -8.99,-2.1 C 18.86,625.24 -2.4,596.09 1.11,564.23 4.52,533.31 27.68,510.88 58.37,507.56 68.35,506.49 77.55,509 87,511.77 q 1.02,0.3 0.42,-0.58 z"
     id="path17"
     style="fill:#ececec" />
  <path
     d="m 1753.6848,612.47696 h -193.4347 v -50.00354 h 64.1493 V 172.64314 h -64.1493 v -50.00355 h 193.4347 v 50.00355 h -64.1492 v 389.83028 h 64.1492 z"
     id="text17"
     style="font-size:673.732px;font-family:KufiStandardGK;-inkscape-font-specification:KufiStandardGK;fill:#ececec;stroke-width:3.50902"
     aria-label="I" />
  <text
     xml:space="preserve"
     id="text18"
     style="font-size:192px;font-family:KufiStandardGK;-inkscape-font-specification:KufiStandardGK;white-space:pre;shape-inside:url(#rect18);display:inline;fill:#f9f9f9" />
  <text
     xml:space="preserve"
     id="text19"
     style="font-size:192px;font-family:KufiStandardGK;-inkscape-font-specification:KufiStandardGK;white-space:pre;shape-inside:url(#rect19);display:inline;fill:#f9f9f9" />
</svg>
