<?xml version="1.0" encoding="UTF-8" standalone="no"?>
<svg
   version="1.1"
   viewBox="0.00 0.00 2423.00 636.00"
   id="svg17"
   sodipodi:docname="logo1.svg"
   inkscape:version="1.3.2 (091e20e, 2023-11-25)"
   xmlns:inkscape="http://www.inkscape.org/namespaces/inkscape"
   xmlns:sodipodi="http://sodipodi.sourceforge.net/DTD/sodipodi-0.dtd"
   xmlns="http://www.w3.org/2000/svg"
   xmlns:svg="http://www.w3.org/2000/svg">
  <defs
     id="defs17">
    <rect
       x="1102.2802"
       y="-43.687933"
       width="383.10957"
       height="265.48821"
       id="rect19" />
    <rect
       x="1035.068"
       y="117.62136"
       width="184.83356"
       height="245.32455"
       id="rect18" />
  </defs>
  <sodipodi:namedview
     id="namedview17"
     pagecolor="#ffffff"
     bordercolor="#000000"
     borderopacity="0.25"
     inkscape:showpageshadow="2"
     inkscape:pageopacity="0.0"
     inkscape:pagecheckerboard="0"
     inkscape:deskcolor="#d1d1d1"
     inkscape:zoom="0.297565"
     inkscape:cx="1209.8197"
     inkscape:cy="315.89737"
     inkscape:window-width="1312"
     inkscape:window-height="449"
     inkscape:window-x="0"
     inkscape:window-y="38"
     inkscape:window-maximized="0"
     inkscape:current-layer="svg17" />
  <path
     fill="#ffffff"
     d="   M 237.81 112.62   Q 248.78 110.33 259.95 108.68   C 326.62 98.82 391.02 113.85 446.92 150.98   Q 451.55 154.06 447.87 158.35   Q 434.03 174.55 421.85 190.08   C 420.13 192.28 417.65 192.87 415.35 191.32   Q 370.21 160.97 318.14 157.13   C 273.92 153.87 229.04 162.65 191.13 185.54   Q 158.20 205.42 133.30 236.07   Q 115.11 258.47 103.68 287.34   C 102.22 291.02 99.04 290.83 95.42 290.06   Q 73.89 285.48 54.72 282.88   C 51.90 282.49 51.88 280.78 52.68 278.48   Q 58.15 262.77 64.15 250.93   Q 106.70 166.97 191.64 128.39   Q 196.19 126.33 191.21 125.88   Q 170.09 124.00 155.60 111.27   C 127.91 86.96 125.98 44.39 152.29 18.54   C 172.39 -1.20 202.56 -5.04 226.97 9.45   C 244.49 19.84 255.98 37.98 257.48 58.46   Q 259.41 84.83 242.33 106.09   Q 239.98 109.02 237.43 111.98   Q 236.67 112.86 237.81 112.62   Z"
     id="path10"
     style="fill:#ececec" />
  <path
     fill="#ffffff"
     d="   M 645.73 509.24   A 0.45 0.45 0.0 0 1 646.42 509.10   C 677.07 535.11 711.12 553.46 750.63 561.11   Q 788.43 568.43 829.33 565.83   C 851.16 564.44 873.87 559.45 892.29 549.28   C 908.01 540.61 921.17 527.71 927.88 511.24   Q 936.40 490.32 933.21 467.15   C 931.28 453.05 923.52 441.38 912.08 432.25   Q 897.70 420.79 880.54 414.55   Q 854.99 405.27 825.93 398.44   C 795.23 391.23 765.37 383.98 735.47 373.95   Q 721.95 369.42 709.40 363.98   C 682.06 352.14 654.91 331.11 642.53 303.75   C 634.27 285.49 631.68 264.53 632.76 244.16   Q 635.08 200.39 662.16 167.52   C 690.60 132.98 735.96 115.68 779.50 110.81   C 849.26 103.01 925.87 118.50 979.13 165.98   Q 981.99 168.53 984.60 171.26   Q 985.00 171.67 984.74 172.19   L 963.42 215.49   A 0.65 0.65 0.0 0 1 962.41 215.69   Q 942.67 198.32 919.29 185.10   Q 876.40 160.84 824.47 158.68   C 789.15 157.21 749.97 161.64 721.58 183.80   Q 687.93 210.05 690.73 256.58   Q 692.55 286.88 716.21 304.28   Q 723.00 309.27 733.19 314.39   C 756.46 326.09 783.30 333.37 809.47 339.57   C 842.08 347.29 875.46 356.12 907.37 367.42   Q 939.16 378.66 962.75 401.08   Q 986.01 423.19 990.57 455.93   C 997.04 502.29 982.26 545.73 945.74 575.64   C 915.22 600.63 874.16 611.91 835.49 614.94   Q 807.90 617.11 777.97 614.78   C 720.31 610.28 666.59 591.94 623.90 553.85   Q 623.32 553.33 623.67 552.64   L 645.73 509.24   Z"
     id="path11"
     style="fill:#ececec" />
  <path
     fill="#ffffff"
     d="   M 1267.42 110.34   C 1339.10 103.48 1413.23 120.20 1465.42 171.20   Q 1465.81 171.59 1465.57 172.08   L 1444.06 215.78   A 0.35 0.34 -57.6 0 1 1443.53 215.90   C 1425.61 200.66 1406.27 187.43 1385.35 177.56   Q 1351.78 161.73 1311.25 159.45   Q 1275.08 157.40 1243.66 166.00   Q 1205.47 176.45 1177.81 205.19   C 1146.58 237.64 1132.71 282.55 1128.58 326.69   Q 1125.62 358.27 1127.97 390.60   C 1131.29 436.53 1144.21 483.43 1176.22 517.99   Q 1201.25 545.01 1236.31 556.64   C 1265.76 566.41 1298.69 567.81 1329.65 563.66   Q 1371.16 558.10 1408.12 534.93   Q 1426.58 523.36 1443.38 509.14   A 0.51 0.50 -33.0 0 1 1444.16 509.30   L 1465.51 552.70   Q 1465.83 553.35 1465.31 553.85   C 1424.16 593.75 1369.94 612.76 1312.69 615.59   C 1256.23 618.37 1201.33 606.74 1156.20 573.25   Q 1123.85 549.24 1102.54 512.31   C 1074.79 464.25 1065.97 408.42 1067.04 353.52   C 1068.45 281.28 1089.56 207.92 1145.93 159.80   C 1180.10 130.64 1222.66 114.63 1267.42 110.34   Z"
     id="path12"
     style="fill:#ececec" />
  <path
     fill="#ffffff"
     d="   M 1547.35 509.61   Q 1547.81 508.71 1548.58 509.36   C 1574.52 531.35 1603.68 548.43 1636.11 557.28   Q 1659.64 563.70 1686.24 565.63   Q 1710.18 567.37 1732.71 565.72   C 1777.27 562.45 1826.03 544.20 1834.57 494.30   C 1838.19 473.16 1835.33 452.41 1819.45 437.14   C 1805.63 423.85 1788.27 416.03 1769.72 410.11   C 1741.22 401.02 1712.48 395.01 1684.27 387.84   Q 1656.55 380.80 1628.07 370.71   C 1598.34 360.17 1572.13 344.36 1553.84 319.91   C 1541.18 302.99 1535.37 281.31 1534.55 259.79   C 1534.29 252.92 1534.31 245.60 1534.97 238.70   C 1539.89 187.73 1569.98 150.06 1615.74 128.68   C 1640.60 117.06 1668.39 111.11 1696.22 109.50   C 1764.63 105.55 1836.71 122.91 1886.66 171.35   A 0.39 0.37 35.8 0 1 1886.74 171.80   L 1865.11 215.77   A 0.37 0.37 0.0 0 1 1864.53 215.89   Q 1845.08 198.93 1822.91 186.12   C 1786.52 165.08 1746.24 156.94 1703.54 158.67   C 1653.87 160.67 1599.69 181.21 1592.96 238.03   C 1589.83 264.56 1596.45 289.07 1619.03 305.01   Q 1625.16 309.34 1632.04 312.91   C 1654.13 324.37 1679.43 332.05 1704.02 337.80   Q 1752.53 349.16 1795.64 362.73   Q 1807.89 366.59 1819.42 371.47   Q 1846.00 382.70 1866.16 402.73   C 1879.64 416.13 1887.96 431.97 1891.51 450.74   Q 1895.02 469.34 1893.21 489.32   Q 1888.08 546.05 1841.44 580.33   Q 1827.57 590.53 1809.49 598.15   C 1780.90 610.21 1749.75 615.28 1718.64 615.89   C 1647.87 617.26 1578.78 601.17 1525.51 553.70   A 0.64 0.64 0.0 0 1 1525.37 552.93   L 1547.35 509.61   Z"
     id="path13"
     style="fill:#ececec" />
  <path
     fill="#ffffff"
     d="   M 545.87 437.81   Q 545.50 436.19 545.01 437.78   C 532.68 477.62 509.00 513.37 478.75 542.16   Q 437.37 581.55 385.02 600.08   Q 382.06 601.13 381.21 598.14   Q 375.04 576.32 368.80 554.72   Q 367.58 550.51 371.74 548.92   Q 416.19 531.88 449.42 497.37   C 479.01 466.65 499.05 425.22 503.97 382.31   C 510.80 322.78 491.16 261.64 448.03 219.38   Q 444.73 216.15 447.62 212.70   Q 461.47 196.19 476.14 177.35   Q 478.08 174.87 480.25 176.98   C 491.01 187.40 500.96 198.50 509.80 210.71   Q 559.77 279.71 557.72 367.22   Q 557.52 376.11 556.42 384.46   Q 555.81 389.14 558.93 385.60   C 572.00 370.82 590.78 361.68 610.67 362.85   C 628.83 363.91 646.07 372.65 656.98 387.19   Q 671.80 406.94 669.84 432.94   C 667.59 462.70 641.84 487.51 611.94 489.30   C 579.13 491.27 553.13 469.26 545.87 437.81   Z"
     id="path15"
     style="fill:#ececec" />
  <path
     fill="#ffffff"
     d="   M 87.42 511.19   Q 80.26 500.61 74.58 491.32   C 42.92 439.46 31.91 379.23 41.55 318.98   C 41.92 316.62 44.03 316.00 46.08 316.40   Q 67.49 320.51 88.67 323.79   Q 93.53 324.54 92.68 329.64   C 80.60 402.29 111.28 476.10 169.50 520.53   C 205.62 548.10 251.23 562.50 296.09 563.06   C 308.35 563.22 320.04 561.95 331.77 559.74   C 333.84 559.36 335.45 560.37 335.98 562.32   Q 342.57 586.50 348.47 606.47   Q 349.38 609.55 346.39 610.13   C 333.07 612.71 320.10 614.34 308.01 614.86   Q 295.59 615.40 278.28 614.25   C 222.58 610.55 169.53 588.86 127.10 552.88   Q 125.82 551.79 124.38 550.98   A 0.50 0.50 0.0 0 0 123.64 551.53   Q 126.75 565.40 125.83 578.04   C 123.83 605.40 100.26 629.65 73.33 633.25   C 71.09 633.55 69.08 635.19 67.00 635.23   Q 63.54 635.29 59.80 635.21   A 1.98 1.95 -24.4 0 1 58.63 634.78   C 56.11 632.74 52.64 633.41 49.64 632.68   C 18.86 625.24 -2.40 596.09 1.11 564.23   C 4.52 533.31 27.68 510.88 58.37 507.56   C 68.35 506.49 77.55 509.00 87.00 511.77   Q 88.02 512.07 87.42 511.19   Z"
     id="path17"
     style="fill:#ececec" />
  <path
     d="m 2233.0551,608.64062 h -193.4347 v -50.00354 h 64.1493 V 168.8068 h -64.1493 v -50.00355 h 193.4347 v 50.00355 h -64.1492 v 389.83028 h 64.1492 z"
     id="text17"
     style="font-size:673.732px;font-family:KufiStandardGK;-inkscape-font-specification:KufiStandardGK;fill:#ececec;stroke-width:3.50902"
     aria-label="I" />
  <text
     xml:space="preserve"
     id="text18"
     style="fill:#f9f9f9;font-size:192px;-inkscape-font-specification:KufiStandardGK;font-family:KufiStandardGK;white-space:pre;shape-inside:url(#rect18)" />
  <text
     xml:space="preserve"
     id="text19"
     style="fill:#f9f9f9;font-size:192px;-inkscape-font-specification:KufiStandardGK;font-family:KufiStandardGK;white-space:pre;shape-inside:url(#rect19)" />
</svg>
