<?xml version="1.0" encoding="UTF-8" standalone="no"?>
<!-- Generator: Adobe Illustrator 19.1.0, SVG Export Plug-In . SVG Version: 6.00 Build 0)  -->

<svg
   version="1.1"
   x="0px"
   y="0px"
   viewBox="0 0 20 20"
   xml:space="preserve"
   id="svg12"
   sodipodi:docname="Circle-icons-mail.svg"
   width="20"
   height="20"
   inkscape:version="1.3.2 (091e20e, 2023-11-25)"
   xmlns:inkscape="http://www.inkscape.org/namespaces/inkscape"
   xmlns:sodipodi="http://sodipodi.sourceforge.net/DTD/sodipodi-0.dtd"
   xmlns="http://www.w3.org/2000/svg"
   xmlns:svg="http://www.w3.org/2000/svg"><defs
   id="defs12" /><sodipodi:namedview
   id="namedview12"
   pagecolor="#ffffff"
   bordercolor="#000000"
   borderopacity="0.25"
   inkscape:showpageshadow="2"
   inkscape:pageopacity="0.0"
   inkscape:pagecheckerboard="0"
   inkscape:deskcolor="#d1d1d1"
   inkscape:zoom="22.848438"
   inkscape:cx="14.705601"
   inkscape:cy="11.729467"
   inkscape:window-width="1728"
   inkscape:window-height="995"
   inkscape:window-x="0"
   inkscape:window-y="38"
   inkscape:window-maximized="1"
   inkscape:current-layer="svg12" />
<style
   type="text/css"
   id="style1">
	.st0{fill:#77B3D4;}
	.st1{opacity:0.2;}
	.st2{fill:#231F20;}
	.st3{fill:#E0E0D1;}
	.st4{fill:#FFFFFF;}
</style>
<g
   id="Layer_1"
   transform="matrix(0.30425369,0,0,0.30425369,0.21024666,0.26259974)">
	<g
   id="g1">
		<circle
   class="st0"
   cx="32"
   cy="32"
   r="32"
   id="circle1" />
	</g>
	<g
   id="g12">
		<g
   class="st1"
   id="g2">
			<path
   class="st2"
   d="m 52,44 c 0,2.2 -1.8,4 -4,4 H 16 c -2.2,0 -4,-1.8 -4,-4 V 24 c 0,-2.2 1.8,-4 4,-4 h 32 c 2.2,0 4,1.8 4,4 z"
   id="path1" />
		</g>
		<g
   id="g3">
			<path
   class="st3"
   d="m 52,42 c 0,2.2 -1.8,4 -4,4 H 16 c -2.2,0 -4,-1.8 -4,-4 V 22 c 0,-2.2 1.8,-4 4,-4 h 32 c 2.2,0 4,1.8 4,4 z"
   id="path2" />
		</g>
		<g
   class="st1"
   id="g5">
			<g
   id="g4">
				<path
   class="st2"
   d="m 35.5,30.2 c -1.9,-2.1 -5.1,-2.1 -7,0 L 13,43.2 c -0.2,0.2 -0.3,0.4 -0.5,0.6 0.7,1.3 2,2.2 3.4,2.2 h 32 c 1.5,0 2.7,-0.9 3.4,-2.2 -0.1,-0.2 -0.3,-0.4 -0.5,-0.6 z"
   id="path3" />
			</g>
		</g>
		<g
   id="g7">
			<g
   id="g6">
				<path
   class="st3"
   d="m 35.5,32 c -1.9,-1.9 -5.1,-1.9 -7,0 L 13,43.5 c -0.2,0.2 -0.3,0.3 -0.5,0.5 0.7,1.2 2,1.9 3.4,1.9 h 32 c 1.5,0 2.7,-0.8 3.4,-1.9 -0.1,-0.2 -0.3,-0.3 -0.5,-0.5 z"
   id="path5" />
			</g>
		</g>
		<g
   class="st1"
   id="g9">
			<g
   id="g8">
				<path
   class="st2"
   d="M 12.6,20.2 C 13.3,18.9 14.6,18 16,18 h 32 c 1.5,0 2.7,0.9 3.4,2.2 -0.1,0.2 -0.3,0.4 -0.5,0.6 l -15.4,13 c -1.9,2.1 -5.1,2.1 -7,0 z"
   id="path7" />
			</g>
		</g>
		<g
   id="g11">
			<g
   id="g10">
				<path
   class="st4"
   d="m 28.5,32 c 1.9,1.9 5.1,1.9 7,0 L 51,20.5 c 0.2,-0.2 0.3,-0.3 0.5,-0.5 -0.7,-1.2 -2,-1.9 -3.4,-1.9 H 16 c -1.5,0 -2.7,0.8 -3.4,1.9 0.1,0.2 0.3,0.3 0.5,0.5 z"
   id="path9" />
			</g>
		</g>
	</g>
</g>
<g
   id="Layer_2">
</g>
</svg>
